<?xml version="1.0" encoding="utf-8"?>
<!-- Generator: Adobe Illustrator 18.1.1, SVG Export Plug-In . SVG Version: 6.00 Build 0)  -->
<svg version="1.1" id="Layer_1" xmlns="http://www.w3.org/2000/svg" xmlns:xlink="http://www.w3.org/1999/xlink" x="0px" y="0px"
	 viewBox="0 0 22 22" style="enable-background:new 0 0 22 22;" xml:space="preserve">
<style type="text/css">
	.st0{fill:#4374BA;}
	.st1{fill-rule:evenodd;clip-rule:evenodd;fill:#4374BA;}
</style>
<g id="Info">
	<g id="Circle_78_">
		<path class="st0" d="M11,1c5.5,0,10,4.5,10,10s-4.5,10-10,10S1,16.5,1,11S5.5,1,11,1 M11,0C4.9,0,0,4.9,0,11s4.9,11,11,11
			s11-4.9,11-11S17.1,0,11,0L11,0z"/>
	</g>
	<path id="Info_Icon_4_" class="st1" d="M11.2,7c0.7,0,1.2-0.6,1.2-1.2s-0.6-1.2-1.2-1.2c-0.7,0-1.2,0.6-1.2,1.2S10.5,7,11.2,7z
		 M10.2,16V9h-1V8h3v0.5V16h1v1h-4v-1H10.2z"/>
</g>
</svg>
