<?xml version="1.0" encoding="utf-8"?>
<!-- Generator: Adobe Illustrator 18.1.1, SVG Export Plug-In . SVG Version: 6.00 Build 0)  -->
<svg version="1.1" id="Layer_1" xmlns="http://www.w3.org/2000/svg" xmlns:xlink="http://www.w3.org/1999/xlink" x="0px" y="0px"
	 viewBox="0 0 375 43" style="enable-background:new 0 0 375 43;" xml:space="preserve">
<style type="text/css">
	.st0{fill:#FFFFFF;}
	.st1{fill:#F9F9FA;}
	.st2{fill:#CDCED2;}
	.st3{fill-rule:evenodd;clip-rule:evenodd;fill:#858E99;}
</style>
<g id="Tool_Bars_x2F_iMessage">
	<g id="Background_179_">
		<rect x="0" y="0" class="st0" width="375" height="43"/>
	</g>
	<g id="Shape_162_">
		<path class="st1" d="M343.5,38.6H196.7c-8.9,0-16.1-7.2-16.1-16.1v-2c0-8.9,7.2-16.1,16.1-16.1h146.8c8.9,0,16.1,7.2,16.1,16.1v2
			C359.6,31.4,352.3,38.6,343.5,38.6z"/>
		<path class="st2" d="M343.5,38.8H196.7c-9,0-16.3-7.3-16.3-16.3v-2c0-9,7.3-16.4,16.3-16.4h146.8c9,0,16.4,7.3,16.4,16.4v2
			C359.8,31.5,352.5,38.8,343.5,38.8z M196.7,4.6c-8.7,0-15.8,7.1-15.8,15.9v2c0,8.7,7.1,15.8,15.8,15.8h146.8
			c8.7,0,15.9-7.1,15.9-15.8v-2c0-8.7-7.1-15.9-15.9-15.9H196.7z"/>
	</g>
	<g id="Mic_Icon_2_">
		<path class="st3" d="M345,18.5v3h0c0,2.2-1.7,4-3.9,4h-0.2c-2.2,0-3.9-1.8-3.9-4h0v-3h-1v3h0c0,2.6,2,4.7,4.5,5V29h-3v1h7v-1h-3
			v-2.5c2.5-0.3,4.5-2.4,4.5-5h0v-3H345z M341,24.5c1.7,0,3-1.3,3-3V15c0-1.7-1.3-3-3-3s-3,1.3-3,3v6.5
			C338,23.1,339.3,24.5,341,24.5z M354,21c0,7.2-5.8,13-13,13s-13-5.8-13-13s5.8-13,13-13S354,13.8,354,21z"/>
	</g>
	<g id="XMLID_3829_">
		<path class="st2" d="M193.6,16.4c0-0.5,0.4-0.9,0.9-0.9s0.9,0.4,0.9,0.9c0,0.5-0.4,0.9-0.9,0.9S193.6,16.9,193.6,16.4z
			 M193.9,18.9h1.3v7.9h-1.3V18.9z"/>
		<path class="st2" d="M197.5,26.8V16.2h1.5l3.6,8.7h0.1l3.6-8.7h1.5v10.6h-1.2v-8.1h-0.1l-3.3,8h-1.1l-3.3-8h-0.1v8.1H197.5z"/>
		<path class="st2" d="M216.7,24.7c-0.4,1.4-1.6,2.2-3.3,2.2c-2.2,0-3.6-1.6-3.6-4.1c0-2.5,1.4-4.1,3.6-4.1c2.1,0,3.4,1.5,3.4,4v0.5
			h-5.7v0.1c0.1,1.6,0.9,2.5,2.3,2.5c1,0,1.7-0.4,2-1.1H216.7z M211.1,22.2h4.4c0-1.4-0.9-2.3-2.1-2.3
			C212.1,19.8,211.2,20.8,211.1,22.2z"/>
		<path class="st2" d="M221.3,18.7c1.7,0,2.8,0.8,3,2.1H223c-0.2-0.6-0.8-1-1.7-1c-0.9,0-1.7,0.5-1.7,1.2c0,0.5,0.4,0.9,1.4,1.1
			l1.2,0.3c1.5,0.4,2.2,1,2.2,2.1c0,1.4-1.4,2.4-3.2,2.4c-1.8,0-3-0.8-3.1-2.2h1.3c0.2,0.7,0.8,1.1,1.9,1.1c1.1,0,1.8-0.5,1.8-1.2
			c0-0.5-0.4-0.9-1.3-1.1l-1.4-0.3c-1.5-0.4-2.2-1-2.2-2.1C218.3,19.7,219.6,18.7,221.3,18.7z"/>
		<path class="st2" d="M228.7,18.7c1.7,0,2.8,0.8,3,2.1h-1.2c-0.2-0.6-0.8-1-1.7-1c-0.9,0-1.7,0.5-1.7,1.2c0,0.5,0.4,0.9,1.4,1.1
			l1.2,0.3c1.5,0.4,2.2,1,2.2,2.1c0,1.4-1.4,2.4-3.2,2.4c-1.8,0-3-0.8-3.1-2.2h1.3c0.2,0.7,0.8,1.1,1.9,1.1c1.1,0,1.8-0.5,1.8-1.2
			c0-0.5-0.4-0.9-1.3-1.1l-1.4-0.3c-1.5-0.4-2.2-1-2.2-2.1C225.8,19.7,227,18.7,228.7,18.7z"/>
		<path class="st2" d="M233.1,24.6c0-1.4,1-2.2,2.9-2.3l2.3-0.1v-0.7c0-1-0.6-1.5-1.8-1.5c-0.9,0-1.6,0.4-1.8,1h-1.3
			c0.2-1.3,1.4-2.1,3.1-2.1c1.9,0,3,1,3,2.6v5.4h-1.2v-1.2h-0.1c-0.5,0.8-1.4,1.3-2.4,1.3C234.2,26.9,233.1,26,233.1,24.6z
			 M238.3,23.8v-0.7l-2.1,0.1c-1.2,0.1-1.7,0.5-1.7,1.3c0,0.8,0.7,1.3,1.6,1.3C237.3,25.8,238.3,25,238.3,23.8z"/>
		<path class="st2" d="M241.6,27.6h1.3c0.1,0.6,0.8,1.1,2,1.1c1.4,0,2.3-0.7,2.3-1.9v-1.6H247c-0.5,0.9-1.4,1.4-2.5,1.4
			c-2,0-3.3-1.6-3.3-3.9c0-2.4,1.3-4,3.3-4c1.1,0,2.1,0.5,2.5,1.4h0.1v-1.3h1.2v8c0,1.8-1.4,2.9-3.5,2.9
			C243,29.8,241.7,28.9,241.6,27.6z M244.8,19.9c-1.5,0-2.3,1.1-2.3,2.8c0,1.7,0.8,2.8,2.3,2.8s2.3-1.1,2.3-2.8
			C247.1,21,246.3,19.9,244.8,19.9z"/>
		<path class="st2" d="M257,24.7c-0.4,1.4-1.6,2.2-3.3,2.2c-2.2,0-3.6-1.6-3.6-4.1c0-2.5,1.4-4.1,3.6-4.1c2.1,0,3.4,1.5,3.4,4v0.5
			h-5.7v0.1c0.1,1.6,0.9,2.5,2.3,2.5c1,0,1.7-0.4,2-1.1H257z M251.4,22.2h4.4c0-1.4-0.9-2.3-2.1-2.3
			C252.4,19.8,251.5,20.8,251.4,22.2z"/>
	</g>
	<g id="Appstore_Icon_3_">
		<path class="st3" d="M151,23h1.7v-2h-2.9L151,23z M137.8,21.1h-3v2h1.9L137.8,21.1z M141.8,21.1l-1.1,2h6l-1.1-2H141.8z
			 M149.5,22.2l-1.7,1l0.9,1.6l1.7-1L149.5,22.2z M144.4,13.3c-0.2-0.3-0.6-0.4-0.9-0.2l-0.5,0.3c-0.3,0.2-0.4,0.6-0.2,0.9l4.8,8.4
			l1.7-1L144.4,13.3z M143.2,17.1c0.2-0.3,0.1-0.7-0.2-0.9l-0.7-0.4c-0.3-0.2-0.7-0.1-0.9,0.2l-0.6,1.1l1.8,1L143.2,17.1z
			 M140.6,17.5L140.6,17.5l-4.2,7.3l1.8,1l4.2-7.3L140.6,17.5z M135.4,28c0,0-0.3,0.9,0.4,0.3c0,0,2.1-2,2.1-2l-1.7-1L135.4,28z
			 M150.5,24.4l-1.3,0.8c0,0-0.6,1.1,1.4,2.4c0.4,0.2,0.5,0.5,0.6,0.9c0.1,0.3,0.3,0.4,0.5,0c0,0,0.6-2.7-0.4-3.6
			C151.3,24.9,151,24.4,150.5,24.4z M139.1,34.4h9c6.9,0,12.5-5.6,12.5-12.5s-5.6-12.5-12.5-12.5h-9c-6.9,0-12.5,5.6-12.5,12.5
			S132.2,34.4,139.1,34.4z"/>
	</g>
	<g id="Draw_Icon_3_">
		<path class="st3" d="M86.6,23.5c-0.4-0.4-1.1-0.4-1.5,0l-0.8,0.8c-0.4,0.4-0.4,1.1,0,1.5l0.5,0.5c0.6,0.6,1.5,0.6,2.1,0l0.2-0.2
			c0.6-0.6,0.6-1.5,0-2.1L86.6,23.5z M86.5,12.7c-8.5-8.8-26.1,4.7,0,20.7c0.9-0.5,1.7-1.1,2.5-1.6l-5.1-5.1l-0.2-0.2
			c-0.9-0.9-0.9-2.3,0-3.2l0.4-0.4c0.9-0.9,2.3-0.9,3.2,0l0.2,0.2l5.7,5.7c0.4-0.3,0.8-0.7,1.2-1l-7.1-7l-0.2-0.2
			c-0.9-0.9-0.9-2.3,0-3.2l0.4-0.4c0.9-0.9,2.3-0.9,3.2,0l0.2,0.2l6.9,6.9C105.5,12.7,93.2,5.8,86.5,12.7z M90,17.3
			c-0.4-0.4-1.1-0.4-1.5,0l-0.8,0.8c-0.4,0.4-0.4,1.1,0,1.5l0.5,0.5c0.6,0.6,1.5,0.6,2.1,0l0.2-0.2c0.6-0.6,0.6-1.5,0-2.1L90,17.3z"
			/>
	</g>
	<g id="Camera_Icon_5_">
		<path class="st3" d="M32.9,19.1c-2.8,0-5,2.2-5,4.9c0,2.7,2.3,4.9,5,4.9c2.8,0,5-2.2,5-4.9C37.9,21.3,35.7,19.1,32.9,19.1z
			 M32.9,30.4c-3.6,0-6.4-2.8-6.4-6.3c0-3.5,2.9-6.3,6.4-6.3s6.4,2.8,6.4,6.3C39.3,27.5,36.4,30.4,32.9,30.4z M42,17.7
			c0,0.5-0.4,0.9-0.9,0.9h0c-0.5,0-0.9-0.4-0.9-0.9v0c0-0.5,0.4-0.9,0.9-0.9h0C41.6,16.8,42,17.2,42,17.7L42,17.7z M43.9,14.8h-3.7
			c-0.4,0-0.7-0.2-0.9-0.5L37.7,12c-0.2-0.3-0.6-0.5-0.9-0.5H29c-0.4,0-0.7,0.2-0.9,0.5l-1.6,2.3c-0.2,0.3-0.6,0.5-0.9,0.5h-3.7
			c-1.7,0-3,1.3-3,2.9v11.8c0,1.6,1.3,2.9,3,2.9h22c1.7,0,3-1.3,3-2.9V17.8C46.9,16.2,45.5,14.8,43.9,14.8z M21.4,13.9h3v-1.1h-3
			V13.9z"/>
	</g>
</g>
</svg>
