<?xml version="1.0" encoding="utf-8"?>
<!-- Generator: Adobe Illustrator 18.1.1, SVG Export Plug-In . SVG Version: 6.00 Build 0)  -->
<svg version="1.1" id="Layer_1" xmlns="http://www.w3.org/2000/svg" xmlns:xlink="http://www.w3.org/1999/xlink" x="0px" y="0px"
	 viewBox="0 0 23.3 23.3" style="enable-background:new 0 0 23.3 23.3;" xml:space="preserve">
<style type="text/css">
	.st0{fill-rule:evenodd;clip-rule:evenodd;fill:#4374BA;}
</style>
<path id="New_Message_Icon_1_" class="st0" d="M19.1,1.2l3,3l1-1c0.3-0.3,0.3-0.8,0-1.1l-1.9-1.9c-0.3-0.3-0.8-0.3-1.1,0L19.1,1.2z
	 M18.5,1.7L9,11.2l-1.5,4.5l4-1l10-10l-1-1L11,13.2l-1.5,0.5l0.5-1.5l9.5-9.5L18.5,1.7z M0,4.3h15l-1,1H1v17h17v-13l1-1v15H0V4.3z"
	/>
</svg>
