<?xml version="1.0" encoding="utf-8"?>
<!-- Generator: Adobe Illustrator 18.1.1, SVG Export Plug-In . SVG Version: 6.00 Build 0)  -->
<svg version="1.1" xmlns="http://www.w3.org/2000/svg" xmlns:xlink="http://www.w3.org/1999/xlink" x="0px" y="0px"
	 viewBox="0 0 44 44" style="enable-background:new 0 0 44 44;" xml:space="preserve">
<style type="text/css">
	.st0{fill-rule:evenodd;clip-rule:evenodd;fill:#FFFFFF;}
	.st1{fill-rule:evenodd;clip-rule:evenodd;fill:url(#Userpic_Icon_2_);}
</style>
<g id="Layer_2">
	<circle class="st0" cx="22.1" cy="22.8" r="19.9"/>
</g>
<g id="Layer_1">
	<linearGradient id="Userpic_Icon_2_" gradientUnits="userSpaceOnUse" x1="22" y1="44" x2="22" y2="0">
		<stop  offset="0" style="stop-color:#67666B"/>
		<stop  offset="1" style="stop-color:#BBBBBD"/>
	</linearGradient>
	<path id="Userpic_Icon_1_" class="st1" d="M14.6,35.1c-0.5,0.1-1,0.3-1.5,0.4C11.7,36,10.4,36.5,9,37c3.5,3.1,8.1,5,13.2,5
		c4.9,0,9.3-1.7,12.8-4.6c-1.8-0.8-4.3-1.7-4.3-1.7c-3-0.6-3.9-1.3-3.9-1.3c-1-0.4-0.8-4.5-0.8-4.5c1.5-0.2,1.4-4.7,1.4-4.7
		c1,0.7,1.1-0.7,1.1-0.7c0.1-0.5,0.3-1.5,0.3-1.5c1-3.2-0.5-2.4-0.5-2.4c0.8-3.1,0.5-5.8,0.5-5.8c-0.2-1.3-0.8-2.4-1.9-3.2
		c-0.4-0.3-0.8-0.5-1.2-0.6c-0.6-0.2-1.2-0.5-1.8-0.7c-0.5-0.1-1-0.2-1.5-0.3c-0.6-0.1-1.1-0.1-1.7,0c-0.5,0-0.8,0.3-0.8,0.3
		c-0.1,0.1-0.8,0.2-0.9,0.3c-0.3,0.1-0.5,0.3-0.8,0.4c-0.7,0.4-1.3,0.9-1.9,1.4c-0.5,0.4-1.1,0.6-1.5,1.1c-0.3,0.4-0.5,1-0.6,1.5
		c-0.1,0.6-0.2,1.3-0.1,1.9c0.1,0.7,0.3,3.9,0.3,3.9c-1.1-0.2-0.5,1.4-0.5,1.4c0.2,0.3,0.5,1.9,0.5,1.9c0.3,2.4,1.4,1.4,1.4,1.4
		c-0.2,4.2,1.2,4.4,1.2,4.4c0.2,2.5-0.3,3.9-0.3,3.9C16.6,34.8,15.4,34.9,14.6,35.1z M44,22c0,12.2-9.8,22-22,22S0,34.2,0,22
		S9.9,0,22,0S44,9.8,44,22z"/>
</g>
</svg>
