<?xml version="1.0" encoding="utf-8"?>
<!-- Generator: Adobe Illustrator 18.1.1, SVG Export Plug-In . SVG Version: 6.00 Build 0)  -->
<svg version="1.1" id="Layer_1" xmlns="http://www.w3.org/2000/svg" xmlns:xlink="http://www.w3.org/1999/xlink" x="0px" y="0px"
	 viewBox="0 0 138.8 39.4" style="enable-background:new 0 0 138.8 39.4;" xml:space="preserve">
<style type="text/css">
	.st0{fill:#171717;}
</style>
<path id="Logo_2_" class="st0" d="M103.7,18.4c-0.1,1.8-0.5,3.2-1,4.2c-1,1.9-3,2.5-3.8-0.2c-0.5-1.5-0.5-4-0.2-6.1
	c0.3-2.1,1.3-3.8,2.8-3.6C103.1,12.7,103.8,14.7,103.7,18.4 M77.7,29.6c0,3-0.5,5.6-1.5,6.4c-1.4,1.1-3.4,0.3-3-1.9
	c0.4-1.9,2-3.9,4.5-6.3C77.7,27.7,77.7,28.3,77.7,29.6 M77.3,18.4c-0.1,1.6-0.5,3.3-1,4.2c-1,1.9-3,2.5-3.8-0.2
	c-0.6-1.9-0.4-4.4-0.2-5.9c0.4-2,1.3-3.9,2.8-3.9C76.7,12.6,77.5,14.3,77.3,18.4 M62.2,18.4c-0.1,1.7-0.4,3.2-1,4.3
	c-1,1.9-2.9,2.5-3.8-0.2c-0.6-2-0.4-4.7-0.2-6.2c0.4-2.2,1.3-3.7,2.8-3.6C61.7,12.7,62.4,14.7,62.2,18.4 M131.2,20.4
	c-0.4,0-0.5,0.4-0.7,1c-0.5,2.3-1,2.8-1.7,2.8c-0.7,0-1.4-1.1-1.6-3.4c-0.1-1.8-0.1-5,0.1-8.3c0-0.7-0.1-1.3-1.9-2
	c-0.8-0.3-1.9-0.7-2.4,0.7c-1.6,3.8-2.2,6.8-2.3,8c0,0.1-0.1,0.1-0.1-0.1c-0.1-1-0.3-2.8-0.3-6.5c0-0.7-0.2-1.3-1-1.9
	c-0.5-0.3-2.1-0.9-2.7-0.2c-0.5,0.6-1.1,2.1-1.7,3.9C114.4,16,114,17,114,17s0-4,0-5.5c0-0.6-0.4-0.8-0.5-0.8
	c-0.5-0.2-1.6-0.4-2-0.4c-0.5,0-0.7,0.3-0.7,0.8c0,0.1-0.1,5.2-0.1,8.8v0.5c-0.3,1.7-1.3,3.9-2.3,3.9c-1.1,0-1.6-0.9-1.6-5.3
	c0-2.5,0.1-3.6,0.1-5.4c0-1,0.1-1.9,0.1-2c0-0.6-1-0.8-1.4-0.9c-0.5-0.1-0.8-0.1-1.2-0.1c-0.4,0-0.7,0.3-0.7,0.7v0.6
	c-0.6-0.9-1.5-1.5-2.1-1.7c-1.6-0.5-3.3-0.1-4.6,1.7c-1,1.4-1.6,3-1.9,5.3c-0.2,1.7-0.1,3.4,0.2,4.8c-0.4,1.6-1.1,2.3-1.8,2.3
	c-1.1,0-1.9-1.8-1.8-4.9c0.1-2.1,0.5-3.5,0.9-5.6c0.2-0.9,0-1.4-0.4-1.8c-0.4-0.4-1.1-0.6-2.2-0.4c-0.8,0.2-1.9,0.4-2.9,0.5
	c0,0,0.1-0.2,0.1-0.7c0.3-2.3-2.2-2.1-3-1.4c-0.5,0.4-0.8,0.9-0.9,1.9c-0.2,1.5,1,2.2,1,2.2C83.9,15.9,83,18.3,82,20
	c-0.5,0.9-0.9,1.6-1.5,2.3c0-0.3,0-0.5,0-0.8c0-3.8,0-6.7,0.1-7.8c0-1,0.1-1.8,0.1-2c0-0.4-0.2-0.6-0.7-0.8c-0.4-0.2-1-0.3-1.5-0.3
	c-0.7-0.1-1.1,0.3-1.1,0.7v0.6c-0.6-0.9-1.5-1.5-2.1-1.7c-1.6-0.5-3.3-0.1-4.6,1.7c-1,1.4-1.7,3.4-1.9,5.3c-0.2,1.8-0.1,3.3,0.1,4.5
	c-0.3,1.3-1,2.6-1.8,2.6c-1.1,0-1.7-0.9-1.7-5.3c0-2.5,0.1-3.6,0.1-5.4c0-1,0.1-1.9,0.1-2c0-0.6-1-0.8-1.4-0.9
	c-0.5-0.1-0.9-0.1-1.2-0.1c-0.4,0-0.7,0.4-0.7,0.7v0.6c-0.6-0.9-1.5-1.5-2.1-1.7c-1.6-0.5-3.3,0-4.6,1.7c-0.8,1.2-1.5,2.4-1.9,5.3
	c-0.1,0.8-0.1,1.6-0.1,2.3c-0.3,2-1.8,4.4-3,4.4c-0.7,0-1.4-1.4-1.4-4.3c0-3.9,0.2-9.4,0.3-9.9c0,0,1.5,0,1.8,0c0.8,0,1.4,0,2.4,0
	c0.5,0,1-1.8,0.5-2.1c-0.2-0.1-1.9-0.2-2.6-0.2c-0.6,0-2.1-0.1-2.1-0.1s0.1-3.7,0.2-4c0-0.3-0.4-0.5-0.6-0.6
	c-0.6-0.2-1.1-0.4-1.7-0.5c-0.9-0.2-1.2,0-1.3,0.7C46,3.9,46,7.1,46,7.1c-0.6,0-2.8-0.1-3.4-0.1c-0.6,0-1.2,2.5-0.4,2.5
	c0.9,0,2.5,0.1,3.6,0.1c0,0,0,5.6,0,7.3v0.5c-0.6,3.1-2.7,4.7-2.7,4.7c0.4-2-0.5-3.6-2.1-4.8c-0.6-0.5-1.8-1.4-3.1-2.4
	c0,0,0.8-0.8,1.5-2.3c0.5-1.1,0.5-2.3-0.7-2.6c-2-0.5-3.6,1-4.1,2.5c-0.4,1.2-0.2,2.1,0.6,3c0.1,0.1,0.1,0.1,0.2,0.2
	c-0.4,0.9-1.1,2-1.6,2.9c-1.4,2.5-2.5,4.4-3.3,4.4c-0.7,0-0.6-2-0.6-3.8c0-1.6,0.1-4,0.2-6.5c0-0.8-0.4-1.3-1.1-1.7
	c-0.4-0.3-1.3-0.8-1.8-0.8c-0.8,0-3,0.1-5.2,6.2c-0.3,0.8-0.8,2.2-0.8,2.2l0-7.4c0-0.2-0.1-0.3-0.3-0.5c-0.4-0.2-1.3-0.6-2.2-0.6
	c-0.4,0-0.6,0.2-0.6,0.6L18,22.4c0,0.9,0,1.9,0.1,2.4c0.1,0.4,0.2,0.8,0.4,1c0.2,0.2,0.4,0.4,0.7,0.4c0.3,0.1,2,0.3,2.1-0.4
	c0.1-0.8,0.1-1.6,1-4.7c1.4-4.8,3.2-7.2,4-8c0.2-0.1,0.3-0.2,0.3,0.1c0,1.1-0.2,3.7-0.3,6c-0.2,6,0.9,7.2,2.4,7.2
	c1.2,0,2.9-1.2,4.7-4.2c1.1-1.9,2.2-3.7,3-5.1c0.5,0.5,1.2,1.1,1.8,1.6c1.4,1.4,1.9,2.7,1.6,3.9c-0.2,0.9-1.1,1.9-2.7,1
	c-0.5-0.3-0.7-0.5-1.1-0.8c-0.3-0.2-0.6-0.2-0.9,0c-0.6,0.5-0.9,1-1.1,1.7c-0.2,0.7,0.5,1.1,1.2,1.4c0.6,0.3,1.9,0.5,2.8,0.6
	c3.3,0.1,6-1.6,7.8-6c0.3,3.8,1.7,5.9,4.2,5.9c1.6,0,3.3-2.1,4-4.2c0.2,0.8,0.5,1.6,0.9,2.2c1.9,3,5.5,2.3,7.4-0.2
	c0.6-0.8,0.7-1.1,0.7-1.1c0.3,2.4,2.2,3.2,3.3,3.2c1.2,0,2.5-0.6,3.4-2.6c0.1,0.2,0.2,0.4,0.3,0.6c1.9,3,5.5,2.3,7.4-0.2
	c0.1-0.1,0.2-0.2,0.2-0.3l0.1,1.6c0,0-1,1-1.7,1.5c-2.8,2.6-5,4.6-5.1,6.8c-0.2,2.9,2.2,4,4,4.1c1.9,0.2,3.5-0.9,4.5-2.4
	c0.9-1.3,1.5-4.1,1.4-6.8c0-1.1,0-2.5-0.1-4c1-1.1,2.1-2.6,3.1-4.3c1.1-1.9,2.3-4.4,2.9-6.3c0,0,1,0,2.2-0.1c0.4,0,0.5,0.1,0.4,0.3
	c-0.1,0.3-1.4,5.4-0.2,8.9c0.8,2.3,2.7,3.1,3.8,3.1c1.3,0,2.5-1,3.2-2.4c0.1,0.2,0.2,0.3,0.3,0.5c1.9,3,5.5,2.3,7.4-0.2
	c0.4-0.6,0.7-1.1,0.7-1.1c0.4,2.5,2.3,3.2,3.4,3.2c1.2,0,2.2-0.5,3.1-2.6c0,0.9,0.1,1.7,0.2,1.9c0.1,0.1,0.4,0.3,0.6,0.4
	c1.1,0.4,2.1,0.2,2.5,0.1c0.3-0.1,0.5-0.3,0.5-0.8c0.1-1.5,0-4,0.5-5.9c0.8-3.1,1.5-4.3,1.8-4.9c0.2-0.3,0.4-0.4,0.4,0
	c0,0.7,0.1,2.8,0.3,5.7c0.2,2.1,0.5,3.3,0.7,3.7c0.6,1.1,1.4,1.2,2,1.2c0.4,0,1.3-0.1,1.2-0.8c0-0.3,0-2.5,0.8-5.6
	c0.5-2,1.3-3.8,1.6-4.5c0.1-0.2,0.2-0.1,0.2,0c-0.1,1.4-0.2,5.9,0.4,8.4c0.8,3.4,3,3.7,3.8,3.7c1.6,0,3-1.3,3.4-4.5
	C131.8,21,131.7,20.4,131.2,20.4 M11.5,2.1c-2.6,1.1-5.4,4.2-6.4,8c-1.1,4.9,3.6,6.9,4,6.3c0.5-0.8-0.9-1.1-1.1-3.6
	c-0.3-3.3,1.2-6.9,3.1-8.5c0.4-0.3,0.3,0.1,0.3,0.9c0,1.4-0.1,13.7-0.1,16.3c0,3.5-0.1,4.6-0.4,5.7c-0.3,1.1-0.7,1.8-0.4,2.1
	c0.4,0.3,1.9-0.4,2.8-1.7c1.1-1.5,1.4-3.2,1.5-5.2c0.1-2.3,0.1-6,0.1-8.1c0-1.9,0-7.5,0-10.9C14.9,2.5,12.6,1.7,11.5,2.1"/>
</svg>
