<?xml version="1.0" encoding="utf-8"?>
<!-- Generator: Adobe Illustrator 18.1.1, SVG Export Plug-In . SVG Version: 6.00 Build 0)  -->
<svg version="1.1" id="Layer_1" xmlns="http://www.w3.org/2000/svg" xmlns:xlink="http://www.w3.org/1999/xlink" x="0px" y="0px"
	 viewBox="0 0 375.5 50.1" style="enable-background:new 0 0 375.5 50.1;" xml:space="preserve">
<style type="text/css">
	.st0{fill:#FFFFFF;}
	.st1{filter:url(#Adobe_OpacityMaskFilter);}
	.st2{opacity:0.3;mask:url(#SVGID_1_);}
	.st3{fill:#010101;}
	.st4{opacity:0.3;fill:#010101;}
	.st5{enable-background:new    ;}
	.st6{fill:#4374BA;}
	.st7{fill:#8A8B8F;}
	.st8{fill:#8C8C8C;}
</style>
<g id="Blur_25_">
	<defs>
		<rect id="Background_110_" y="0.7" width="375" height="49"/>
	</defs>
	<clipPath id="Background_1_">
		<use xlink:href="#Background_110_"  style="overflow:visible;"/>
	</clipPath>
	<g style="clip-path:url(#Background_1_);">
		
			<image style="overflow:visible;" width="375" height="667" id="XMLID_1_" xlink:href="97CFADB0A49D2BF0.png"  transform="matrix(1 0 0 1 0 -617)">
		</image>
	</g>
</g>
<g>
	<rect x="0.5" y="0.2" class="st0" width="375" height="49"/>
</g>
<defs>
	<filter id="Adobe_OpacityMaskFilter" filterUnits="userSpaceOnUse" x="0.5" y="0.2" width="375" height="49">
		
			<feColorMatrix  type="matrix" values="-1 0 0 0 1  0 -1 0 0 1  0 0 -1 0 1  0 0 0 1 0" color-interpolation-filters="sRGB" result="source"/>
	</filter>
</defs>
<mask maskUnits="userSpaceOnUse" x="0.5" y="0.2" width="375" height="49" id="SVGID_1_">
	<g class="st1">
		
			<image style="overflow:visible;" width="1580" height="221" xlink:href="97CFADB0A49D2BF0.jpg"  transform="matrix(0.24 0 0 0.24 -1.5 -1.75)">
		</image>
	</g>
</mask>
<g class="st2">
	<rect x="0.5" y="0.2" class="st3" width="375" height="49"/>
</g>
<rect id="Line_106_" x="0.5" class="st4" width="375" height="0.5"/>
<g id="Albums_6_">
	<g id="XMLID_2198_" class="st5">
		<path class="st6" d="M301.3,43.9h-2.8l-0.7,2h-0.9l2.6-7h0.9l2.6,7H302L301.3,43.9z M298.8,43.1h2.3L300,40h-0.1L298.8,43.1z"/>
		<path class="st6" d="M304.2,38.5h0.8v7.4h-0.8V38.5z"/>
		<path class="st6" d="M307.8,45L307.8,45l-0.1,0.8h-0.8v-7.4h0.8v2.9h0.1c0.3-0.6,0.9-0.9,1.7-0.9c1.3,0,2.2,1.1,2.2,2.7
			c0,1.6-0.9,2.7-2.2,2.7C308.7,46,308.1,45.6,307.8,45z M307.7,43.2c0,1.2,0.6,2,1.6,2c1,0,1.5-0.7,1.5-2s-0.6-2-1.5-2
			C308.3,41.3,307.7,42,307.7,43.2z"/>
		<path class="st6" d="M317.4,45.9h-0.8V45h-0.1c-0.3,0.6-0.8,0.9-1.6,0.9c-1.2,0-1.8-0.7-1.8-1.9v-3.4h0.8v3.2
			c0,0.9,0.4,1.4,1.2,1.4c0.9,0,1.4-0.6,1.4-1.5v-3.1h0.8V45.9z"/>
		<path class="st6" d="M319.1,40.6h0.8v0.8h0.1c0.2-0.6,0.8-0.9,1.5-0.9c0.7,0,1.2,0.4,1.5,0.9h0.1c0.3-0.6,0.9-0.9,1.6-0.9
			c1.1,0,1.7,0.6,1.7,1.7v3.6h-0.8v-3.4c0-0.8-0.4-1.2-1.1-1.2c-0.7,0-1.2,0.5-1.2,1.2v3.4h-0.8v-3.6c0-0.6-0.4-1-1.1-1
			c-0.7,0-1.2,0.6-1.2,1.3v3.3h-0.8V40.6z"/>
		<path class="st6" d="M329.7,40.5c1.1,0,1.9,0.5,2,1.4h-0.8c-0.1-0.4-0.5-0.7-1.2-0.7c-0.6,0-1.1,0.3-1.1,0.8
			c0,0.4,0.3,0.6,0.9,0.7l0.8,0.2c1,0.2,1.5,0.7,1.5,1.4c0,0.9-0.9,1.6-2.1,1.6c-1.2,0-2-0.6-2.1-1.4h0.9c0.1,0.4,0.6,0.7,1.2,0.7
			c0.7,0,1.2-0.3,1.2-0.8c0-0.4-0.3-0.6-0.8-0.7l-0.9-0.2c-1-0.2-1.4-0.7-1.4-1.4C327.8,41.2,328.6,40.5,329.7,40.5z"/>
	</g>
	<g id="Icon_69_">
		<g id="XMLID_2197_">
			<rect x="299.5" y="11.9" class="st6" width="28" height="20"/>
			<path class="st6" d="M328,32.4h-29v-21h29V32.4z M300,31.4h27v-19h-27V31.4z"/>
		</g>
		<g id="XMLID_2196_">
			<polygon class="st6" points="322.5,7.9 304.5,7.9 304.5,8.9 322.5,8.9 322.5,7.9 			"/>
		</g>
		<g id="XMLID_2195_">
			<polygon class="st6" points="324.5,9.9 302.5,9.9 302.5,10.9 324.5,10.9 324.5,9.9 			"/>
		</g>
	</g>
</g>
<g id="Memories_5_" transform="translate(125.000000, 0.000000)">
	<g id="XMLID_2194_" class="st5">
		<path class="st7" d="M40.7,45.9v-7h1l2.4,5.8h0.1l2.4-5.8h1v7h-0.8v-5.4h-0.1l-2.2,5.3h-0.7l-2.2-5.3h-0.1v5.4H40.7z"/>
		<path class="st7" d="M53.8,44.5c-0.3,0.9-1.1,1.5-2.2,1.5c-1.5,0-2.4-1.1-2.4-2.7c0-1.7,0.9-2.7,2.4-2.7c1.4,0,2.3,1,2.3,2.6v0.3
			h-3.8v0c0,1,0.6,1.7,1.5,1.7c0.7,0,1.1-0.2,1.4-0.7H53.8z M50.1,42.8H53c0-0.9-0.6-1.5-1.4-1.5C50.7,41.3,50.2,41.9,50.1,42.8z"/>
		<path class="st7" d="M55.3,40.6h0.8v0.8h0.1c0.2-0.6,0.8-0.9,1.5-0.9c0.7,0,1.2,0.4,1.5,0.9h0.1c0.3-0.6,0.9-0.9,1.6-0.9
			c1.1,0,1.7,0.6,1.7,1.7v3.6h-0.8v-3.4c0-0.8-0.4-1.2-1.1-1.2c-0.7,0-1.2,0.5-1.2,1.2v3.4h-0.8v-3.6c0-0.6-0.4-1-1.1-1
			c-0.7,0-1.2,0.6-1.2,1.3v3.3h-0.8V40.6z"/>
		<path class="st7" d="M63.9,43.2c0-1.7,0.9-2.7,2.4-2.7s2.4,1,2.4,2.7c0,1.7-0.9,2.7-2.4,2.7S63.9,44.9,63.9,43.2z M67.9,43.2
			c0-1.2-0.6-2-1.6-2s-1.6,0.7-1.6,2c0,1.2,0.6,2,1.6,2S67.9,44.5,67.9,43.2z"/>
		<path class="st7" d="M70.2,40.6H71v0.8H71c0.2-0.5,0.8-0.9,1.5-0.9c0.1,0,0.3,0,0.4,0v0.8c-0.1,0-0.4,0-0.5,0
			c-0.8,0-1.4,0.5-1.4,1.3v3.3h-0.8V40.6z"/>
		<path class="st7" d="M74,38.9c0-0.3,0.3-0.6,0.6-0.6s0.6,0.3,0.6,0.6s-0.3,0.6-0.6,0.6S74,39.3,74,38.9z M74.2,40.6h0.8v5.3h-0.8
			V40.6z"/>
		<path class="st7" d="M81.1,44.5C80.8,45.4,80,46,78.9,46c-1.5,0-2.4-1.1-2.4-2.7c0-1.7,0.9-2.7,2.4-2.7c1.4,0,2.3,1,2.3,2.6v0.3
			h-3.8v0c0,1,0.6,1.7,1.5,1.7c0.7,0,1.1-0.2,1.4-0.7H81.1z M77.4,42.8h2.9c0-0.9-0.6-1.5-1.4-1.5C78,41.3,77.4,41.9,77.4,42.8z"/>
		<path class="st7" d="M84.4,40.5c1.1,0,1.9,0.5,2,1.4h-0.8c-0.1-0.4-0.5-0.7-1.2-0.7c-0.6,0-1.1,0.3-1.1,0.8c0,0.4,0.3,0.6,0.9,0.7
			l0.8,0.2c1,0.2,1.5,0.7,1.5,1.4c0,0.9-0.9,1.6-2.1,1.6c-1.2,0-2-0.6-2.1-1.4h0.9c0.1,0.4,0.6,0.7,1.2,0.7c0.7,0,1.2-0.3,1.2-0.8
			c0-0.4-0.3-0.6-0.8-0.7l-0.9-0.2c-1-0.2-1.4-0.7-1.4-1.4C82.5,41.2,83.3,40.5,84.4,40.5z"/>
	</g>
	<g id="Memories-Icon_3_">
		<path class="st8" d="M61.4,18L61.4,18v-0.6l0.5-0.3l0.5,0.3v6.9l-0.5,0.3l-0.5-0.3v-0.6l6-3.4l0.5,0.3l0,0.6l-0.5,0.3L61.4,18z
			 M53.4,21.3l2.4-2.1c0.2-0.2,0.5-0.2,0.7,0.1c0.2,0.2,0.2,0.5-0.1,0.7l-3.2,2.8c-0.2,0.2-0.5,0.2-0.7,0l-3-3
			c-0.2-0.2-0.2-0.5,0-0.7c0.2-0.2,0.5-0.2,0.7,0l2.1,2.1c-0.2-6.4,5.2-11.8,11.6-11.8c6.4,0,11.5,5.1,11.5,11.5
			s-5.2,11.5-11.5,11.5c-2.7,0-5.2-0.9-7.2-2.6c-0.2-0.2-0.2-0.5-0.1-0.7c0.2-0.2,0.5-0.2,0.7-0.1c1.9,1.5,4.2,2.3,6.6,2.3
			c5.8,0,10.5-4.7,10.5-10.5s-4.7-10.5-10.5-10.5C58.1,10.3,53.1,15.4,53.4,21.3z M61.4,16.8l7,4l-7,4V16.8z"/>
	</g>
</g>
<g id="XMLID_2190_" class="st5">
	<path class="st7" d="M45.2,38.8c1.3,0,2.3,0.9,2.3,2.3c0,1.3-0.9,2.3-2.3,2.3h-1.8v2.5h-0.9v-7H45.2z M43.5,42.6H45
		c1,0,1.6-0.5,1.6-1.5c0-1-0.6-1.5-1.6-1.5h-1.6V42.6z"/>
	<path class="st7" d="M49,38.5h0.8v2.9h0.1c0.3-0.6,0.8-0.9,1.6-0.9c1.1,0,1.8,0.7,1.8,1.9v3.4h-0.8v-3.2c0-0.9-0.4-1.4-1.2-1.4
		c-0.9,0-1.5,0.6-1.5,1.5v3.1H49V38.5z"/>
	<path class="st7" d="M54.7,43.2c0-1.7,0.9-2.7,2.4-2.7s2.4,1,2.4,2.7c0,1.7-0.9,2.7-2.4,2.7S54.7,44.9,54.7,43.2z M58.7,43.2
		c0-1.2-0.6-2-1.6-2s-1.6,0.7-1.6,2c0,1.2,0.6,2,1.6,2S58.7,44.5,58.7,43.2z"/>
	<path class="st7" d="M62.2,39.2v1.4h1.2v0.7h-1.2v3c0,0.6,0.2,0.9,0.8,0.9c0.2,0,0.2,0,0.4,0v0.7c-0.2,0-0.3,0-0.5,0
		c-1.1,0-1.5-0.4-1.5-1.4v-3.2h-0.8v-0.7h0.8v-1.4H62.2z"/>
	<path class="st7" d="M64.5,43.2c0-1.7,0.9-2.7,2.4-2.7s2.4,1,2.4,2.7c0,1.7-0.9,2.7-2.4,2.7S64.5,44.9,64.5,43.2z M68.4,43.2
		c0-1.2-0.6-2-1.6-2s-1.6,0.7-1.6,2c0,1.2,0.6,2,1.6,2S68.4,44.5,68.4,43.2z"/>
	<path class="st7" d="M72.6,40.5c1.1,0,1.9,0.5,2,1.4h-0.8c-0.1-0.4-0.5-0.7-1.2-0.7c-0.6,0-1.1,0.3-1.1,0.8c0,0.4,0.3,0.6,0.9,0.7
		l0.8,0.2c1,0.2,1.5,0.7,1.5,1.4c0,0.9-0.9,1.6-2.1,1.6c-1.2,0-2-0.6-2.1-1.4h0.9c0.1,0.4,0.6,0.7,1.2,0.7c0.7,0,1.2-0.3,1.2-0.8
		c0-0.4-0.3-0.6-0.8-0.7l-0.9-0.2c-1-0.2-1.4-0.7-1.4-1.4C70.6,41.2,71.5,40.5,72.6,40.5z"/>
</g>
<path id="Photos-Icon_4_" class="st7" d="M46.6,12.7L46.6,12.7l1.1-1v18.2l-1.1-1h26.3l-1.1,1V11.7l1.1,1H46.6z M69.2,8.6V7.9H42.9
	v0.7v16.5h1.1V8.9h24.2v2h1.1V9.7V8.6z M46.6,11.7h26.3v18.2H46.6V11.7z M42.9,25.1h3v1h-3V25.1z"/>
</svg>
